<svg width="535" height="539" viewBox="0 0 535 539" fill="none" xmlns="http://www.w3.org/2000/svg">
<mask id="mask0_0_273" style="mask-type:luminance" maskUnits="userSpaceOnUse" x="0" y="53" width="533" height="468">
<path fill-rule="evenodd" clip-rule="evenodd" d="M0.000640869 53.9533H532.615V520.04H0.000640869V53.9533Z" fill="white"/>
</mask>
<g mask="url(#mask0_0_273)">
<path fill-rule="evenodd" clip-rule="evenodd" d="M499.715 308.203C498.065 310.853 496.419 313.458 494.664 316.053C479.314 339.108 460.264 361.253 439.169 381.608C438.215 382.553 437.215 383.508 436.22 384.453C433.215 387.303 430.115 390.158 427.014 392.903C421.669 397.808 416.164 402.553 410.564 407.103C407.614 409.603 404.569 412.058 401.564 414.453C366.669 442.058 329.37 466.208 292.615 484.403C281.22 490.108 269.819 495.203 258.569 499.603C199.864 522.858 145.219 528.308 107.52 505.253C95.5145 497.953 85.2645 487.753 77.1145 474.308C75.8145 472.153 74.5145 470.003 73.2145 467.858C61.1695 447.703 49.6645 427.458 39.5645 407.103C37.1645 402.353 34.9195 397.658 32.7195 392.903C-3.9305 314.153 -17.8855 234.453 34.0645 156.053C54.2645 125.558 87.4195 101.808 127.215 85.0033C138.57 80.1583 150.414 75.9533 162.719 72.3033C168.77 70.4033 174.865 68.7533 181.115 67.2583C188.969 65.2583 196.964 63.5083 205.064 62.0033C211.27 60.8083 217.464 59.7583 223.714 58.8533C226.314 58.5083 228.914 58.1583 231.514 57.8033C249.964 55.4583 268.664 54.1533 287.27 54.0083C289.715 53.9533 292.164 53.9533 294.569 53.9533C305.819 54.0083 316.965 54.4533 327.965 55.3583C330.915 55.5583 333.864 55.8083 336.814 56.1533C392.964 61.6083 444.465 77.7033 479.465 104.408C487.115 110.258 493.969 116.553 499.914 123.408C501.02 124.658 502.069 125.908 503.064 127.203C503.414 127.603 503.719 128.003 504.064 128.408C511.314 137.503 517.115 146.908 521.47 156.508C543.72 204.958 530.715 258.403 499.715 308.203Z" fill="#FDE6D6"/>
</g>
<path fill-rule="evenodd" clip-rule="evenodd" d="M386.54 454.642C373.05 468.782 363.445 489.002 377.955 500.982C394.16 514.357 427.585 511.252 444.865 486.017C455.91 469.897 461.755 444.412 449.52 430.117C439.045 417.877 403.09 437.292 386.54 454.642Z" fill="#E8E5EA"/>
<path fill-rule="evenodd" clip-rule="evenodd" d="M190.366 450.957C187.016 451.102 183.616 451.207 180.316 451.207C179.966 451.207 179.716 451.502 179.716 451.857C179.716 452.152 179.966 452.457 180.316 452.457C183.666 452.457 187.016 452.352 190.416 452.207C190.766 452.207 191.016 451.902 191.016 451.557C190.966 451.257 190.666 450.957 190.366 450.957ZM170.316 451.057C166.916 450.957 163.516 450.757 160.316 450.557C159.866 450.507 159.666 450.757 159.616 451.102C159.616 451.457 159.866 451.757 160.216 451.807C163.466 452.007 166.866 452.207 170.266 452.307C170.616 452.307 170.916 452.057 170.916 451.702C170.916 451.357 170.666 451.057 170.316 451.057ZM210.366 449.507C207.016 449.852 203.666 450.157 200.366 450.407C200.016 450.407 199.766 450.702 199.766 451.057C199.816 451.407 200.066 451.657 200.416 451.657H200.466C203.766 451.407 207.116 451.102 210.466 450.757C210.816 450.702 211.066 450.407 211.066 450.052C211.016 449.707 210.716 449.452 210.366 449.507ZM150.316 449.557C147.016 449.202 143.666 448.707 140.416 448.152C140.066 448.107 139.766 448.307 139.666 448.657C139.616 449.002 139.866 449.307 140.216 449.357C143.466 449.957 146.816 450.407 150.166 450.807H150.266C150.566 450.807 150.816 450.607 150.866 450.252C150.916 449.907 150.666 449.602 150.316 449.557ZM230.266 446.857C226.866 447.352 223.566 447.857 220.316 448.307C219.966 448.352 219.716 448.657 219.766 449.002C219.816 449.307 220.116 449.557 220.416 449.557H220.466C223.716 449.107 227.066 448.602 230.466 448.057C230.766 448.007 231.016 447.707 230.966 447.352C230.916 447.007 230.616 446.807 230.266 446.857ZM130.616 446.157C127.316 445.407 124.066 444.557 120.916 443.657C120.566 443.557 120.216 443.707 120.116 444.057C120.016 444.402 120.216 444.757 120.566 444.852C123.616 445.702 126.716 446.557 129.866 447.307C130.016 447.352 130.166 447.352 130.316 447.407H130.466C130.566 447.407 130.666 447.352 130.766 447.307L130.816 447.257C130.966 447.207 131.016 447.057 131.066 446.902C131.116 446.607 130.916 446.257 130.616 446.157ZM249.966 443.107C246.716 443.802 243.366 444.507 240.216 445.107H240.116C239.766 445.157 239.566 445.452 239.616 445.807C239.666 446.102 239.966 446.302 240.266 446.302H240.366C242.616 445.902 244.916 445.452 247.216 444.957C248.216 444.757 249.216 444.557 250.216 444.307C250.566 444.257 250.766 443.907 250.716 443.557C250.616 443.257 250.316 443.007 249.966 443.107ZM269.466 438.352C266.316 439.202 263.066 440.052 259.766 440.852C259.416 440.957 259.216 441.257 259.316 441.607C259.366 441.902 259.616 442.102 259.916 442.102C259.966 442.102 260.016 442.102 260.066 442.057C263.366 441.257 266.666 440.407 269.816 439.602C270.116 439.507 270.316 439.157 270.266 438.802C270.166 438.507 269.816 438.307 269.466 438.352ZM111.416 440.452C110.316 440.052 109.266 439.652 108.166 439.202C106.116 438.402 104.166 437.507 102.216 436.607C101.916 436.457 101.516 436.607 101.366 436.902C101.216 437.207 101.366 437.607 101.666 437.752C103.766 438.757 105.966 439.652 108.166 440.557C109.066 440.957 110.016 441.302 110.966 441.657H111.216C111.466 441.657 111.716 441.502 111.816 441.257C111.916 440.957 111.766 440.607 111.416 440.452ZM288.716 432.752C288.066 432.952 287.416 433.202 286.716 433.402C284.266 434.157 281.716 434.957 279.166 435.702C278.816 435.807 278.616 436.102 278.716 436.457C278.816 436.757 279.066 436.902 279.316 436.902H279.516C282.016 436.157 284.566 435.407 286.966 434.652C287.716 434.402 288.416 434.202 289.116 433.957C289.416 433.857 289.616 433.507 289.516 433.152C289.416 432.857 289.066 432.657 288.716 432.752ZM93.316 432.007L92.966 431.757C90.166 430.157 87.466 428.457 84.866 426.657C84.616 426.457 84.216 426.557 84.016 426.857C83.816 427.102 83.916 427.507 84.166 427.707C86.766 429.452 89.516 431.207 92.316 432.857L92.716 433.107C92.816 433.152 92.916 433.152 93.016 433.152C93.266 433.152 93.466 433.057 93.566 432.857C93.766 432.552 93.616 432.152 93.316 432.007ZM307.716 426.302C304.566 427.457 301.366 428.557 298.266 429.652C297.916 429.757 297.766 430.107 297.866 430.407C297.966 430.702 298.166 430.852 298.466 430.852C298.516 430.852 298.566 430.852 298.666 430.807C301.816 429.757 304.966 428.602 308.116 427.457C308.466 427.352 308.616 427.007 308.516 426.657C308.366 426.302 307.966 426.157 307.716 426.302ZM327.216 419.307C327.066 418.957 326.716 418.802 326.416 418.957C323.366 420.207 320.216 421.502 317.066 422.707C316.766 422.857 316.616 423.202 316.716 423.557C316.816 423.802 317.066 423.957 317.316 423.957C317.366 423.957 317.466 423.907 317.566 423.907C320.716 422.657 323.866 421.357 326.866 420.107C327.216 419.957 327.366 419.602 327.216 419.307ZM76.866 420.702C75.716 419.807 74.566 418.857 73.516 417.952C72.066 416.702 70.716 415.407 69.366 414.157C69.116 413.907 68.716 413.907 68.466 414.157C68.216 414.402 68.216 414.807 68.466 415.052C70.066 416.557 71.716 418.057 73.466 419.507C74.316 420.252 75.166 421.007 76.066 421.702C76.166 421.807 76.316 421.857 76.466 421.857C76.666 421.857 76.816 421.757 76.966 421.607C77.166 421.357 77.116 420.957 76.866 420.702ZM345.616 411.102C345.466 410.757 345.066 410.652 344.766 410.807C341.866 412.152 338.916 413.557 335.616 415.007C335.316 415.107 335.166 415.507 335.316 415.807C335.416 416.057 335.666 416.207 335.866 416.207C335.966 416.207 336.066 416.157 336.116 416.102C339.416 414.652 342.416 413.307 345.316 411.902C345.616 411.757 345.766 411.407 345.616 411.102ZM62.466 406.902C60.266 404.402 58.166 401.757 56.266 399.107C56.066 398.802 55.666 398.757 55.366 398.957C55.116 399.157 55.066 399.557 55.266 399.807C57.016 402.307 58.966 404.757 60.966 407.102C61.166 407.307 61.316 407.552 61.516 407.752C61.616 407.857 61.816 407.952 61.966 407.952C62.116 407.952 62.266 407.907 62.416 407.807C62.616 407.607 62.666 407.352 62.566 407.102C62.566 407.007 62.516 406.952 62.466 406.902ZM363.566 402.057C363.416 401.757 363.016 401.657 362.716 401.807C359.866 403.352 356.816 404.907 353.816 406.407C353.516 406.557 353.416 406.857 353.516 407.102C353.466 407.152 353.516 407.207 353.516 407.257C353.616 407.457 353.866 407.607 354.066 407.607C354.166 407.607 354.266 407.552 354.366 407.507C354.616 407.352 354.916 407.257 355.166 407.102C357.966 405.757 360.666 404.307 363.316 402.907C363.616 402.752 363.716 402.352 363.566 402.057ZM381.066 392.207C380.916 391.902 380.516 391.807 380.216 391.952C379.666 392.257 379.166 392.607 378.616 392.907C376.316 394.307 373.966 395.652 371.516 397.007C371.216 397.152 371.116 397.552 371.316 397.857C371.416 398.057 371.616 398.152 371.866 398.152C371.966 398.152 372.066 398.152 372.166 398.107C375.116 396.407 378.066 394.707 380.866 393.057C380.916 393.007 380.966 392.952 381.016 392.907C381.216 392.707 381.216 392.457 381.066 392.207ZM50.866 390.702C49.166 387.857 47.616 384.852 46.266 381.857C46.116 381.557 45.716 381.407 45.416 381.557C45.116 381.702 44.966 382.057 45.116 382.407C46.516 385.407 48.066 388.457 49.766 391.357C49.866 391.557 50.066 391.657 50.316 391.657C50.416 391.657 50.516 391.607 50.616 391.557C50.916 391.407 51.016 391.007 50.866 390.702ZM398.116 381.607C398.116 381.557 398.066 381.502 398.066 381.457C397.866 381.157 397.466 381.102 397.216 381.257C397.016 381.357 396.866 381.502 396.666 381.607C395.266 382.552 393.766 383.557 392.316 384.452C391.166 385.252 389.966 386.007 388.816 386.757C388.516 386.902 388.416 387.307 388.616 387.607C388.716 387.807 388.916 387.907 389.116 387.907C389.216 387.907 389.366 387.857 389.466 387.807C391.216 386.702 392.916 385.607 394.616 384.452C395.716 383.757 396.816 383.057 397.916 382.307C398.116 382.152 398.216 381.857 398.116 381.607ZM414.416 369.807C414.216 369.507 413.816 369.452 413.566 369.652C410.916 371.657 408.166 373.657 405.466 375.607C405.166 375.807 405.116 376.157 405.316 376.457C405.466 376.607 405.616 376.702 405.816 376.702C405.966 376.702 406.066 376.702 406.216 376.607C408.916 374.652 411.666 372.657 414.316 370.652C414.616 370.452 414.666 370.052 414.416 369.807ZM39.566 363.057C39.466 362.707 39.116 362.507 38.766 362.607C38.466 362.707 38.266 363.057 38.316 363.352C39.216 366.657 40.216 369.907 41.316 373.007C41.416 373.307 41.616 373.457 41.916 373.457C41.966 373.457 42.016 373.457 42.116 373.402C42.416 373.307 42.616 372.952 42.466 372.607C41.366 369.507 40.416 366.302 39.566 363.057ZM430.066 357.102C429.816 356.857 429.416 356.857 429.166 357.057C426.716 359.157 424.166 361.302 421.466 363.507C421.216 363.707 421.166 364.107 421.366 364.357C421.516 364.507 421.666 364.602 421.866 364.602C422.016 364.602 422.116 364.557 422.266 364.452C424.966 362.307 427.566 360.107 429.966 358.007C430.266 357.752 430.266 357.407 430.066 357.102ZM36.016 343.352C36.016 343.057 35.716 342.752 35.366 342.807C35.016 342.857 34.766 343.152 34.816 343.507C35.166 346.902 35.616 350.252 36.166 353.507C36.216 353.802 36.516 354.002 36.816 354.002H36.916C37.266 353.957 37.466 353.657 37.416 353.307C36.866 350.052 36.366 346.757 36.016 343.352ZM444.766 343.457C444.516 343.202 444.116 343.202 443.866 343.457C441.566 345.757 439.116 348.107 436.666 350.407C436.416 350.607 436.366 351.007 436.616 351.257C436.716 351.407 436.916 351.457 437.066 351.457C437.216 351.457 437.366 351.407 437.516 351.302C439.966 349.002 442.416 346.657 444.766 344.307C445.016 344.057 445.016 343.657 444.766 343.457ZM458.316 328.602C458.066 328.352 457.666 328.402 457.416 328.657C455.366 331.157 453.116 333.707 450.816 336.207C450.566 336.457 450.616 336.857 450.866 337.102C450.966 337.207 451.116 337.257 451.266 337.257C451.466 337.257 451.616 337.152 451.716 337.057C454.066 334.507 456.316 331.952 458.416 329.452C458.616 329.202 458.566 328.802 458.316 328.602ZM35.266 327.857C35.266 326.407 35.266 324.907 35.316 323.402C35.316 323.057 35.066 322.752 34.716 322.752C34.366 322.752 34.066 323.007 34.066 323.352C34.016 324.852 34.016 326.357 34.016 327.857C34.016 329.757 34.066 331.607 34.116 333.457C34.116 333.757 34.416 334.057 34.716 334.057H34.766C35.116 334.002 35.366 333.757 35.366 333.402C35.316 331.557 35.266 329.707 35.266 327.857ZM470.416 312.607C470.116 312.407 469.766 312.457 469.566 312.752C467.716 315.452 465.716 318.202 463.716 320.852C463.466 321.157 463.566 321.557 463.816 321.757C463.916 321.807 464.066 321.857 464.216 321.857C464.366 321.857 464.566 321.807 464.716 321.607C466.716 318.957 468.716 316.207 470.566 313.457C470.766 313.152 470.716 312.752 470.416 312.607ZM36.416 302.752C36.016 302.657 35.766 302.907 35.716 303.257C35.266 306.657 34.916 310.007 34.616 313.307C34.616 313.657 34.866 313.957 35.216 313.957H35.266C35.566 313.957 35.866 313.707 35.866 313.402C36.166 310.107 36.516 306.757 36.966 303.457C37.016 303.107 36.766 302.752 36.416 302.752ZM480.666 295.307C480.366 295.207 480.016 295.307 479.816 295.607C478.366 298.457 476.716 301.407 474.966 304.307C474.766 304.602 474.866 305.007 475.166 305.207C475.266 305.252 475.366 305.252 475.466 305.252C475.716 305.252 475.916 305.157 476.016 304.957C477.816 302.007 479.466 299.057 480.966 296.157C481.116 295.852 480.966 295.452 480.666 295.307ZM40.016 282.952C39.666 282.907 39.366 283.107 39.266 283.457C38.566 286.757 37.866 290.052 37.266 293.307C37.216 293.657 37.466 293.957 37.766 294.057H37.916C38.216 294.057 38.466 293.857 38.516 293.557C39.116 290.307 39.766 287.007 40.516 283.707C40.566 283.352 40.366 283.057 40.016 282.952ZM488.566 276.857C488.216 276.757 487.866 276.902 487.766 277.257C486.716 280.307 485.466 283.457 484.116 286.557C483.966 286.902 484.116 287.257 484.466 287.407C484.516 287.407 484.616 287.457 484.716 287.457C484.916 287.457 485.166 287.307 485.266 287.057C486.616 283.907 487.866 280.757 488.916 277.657C489.066 277.352 488.866 277.007 488.566 276.857ZM45.216 263.557C44.916 263.457 44.566 263.657 44.466 264.002C43.466 267.207 42.516 270.452 41.666 273.657C41.616 274.002 41.816 274.357 42.116 274.402C42.166 274.452 42.216 274.452 42.316 274.452C42.566 274.452 42.816 274.257 42.916 274.002C43.716 270.807 44.666 267.552 45.666 264.357C45.766 264.002 45.566 263.657 45.216 263.557ZM493.866 257.507C493.516 257.407 493.216 257.657 493.116 257.952C492.416 261.157 491.566 264.402 490.666 267.707C490.616 268.007 490.766 268.352 491.116 268.457C491.166 268.457 491.216 268.507 491.266 268.507C491.566 268.507 491.816 268.307 491.866 268.007C492.766 264.757 493.616 261.457 494.366 258.257C494.416 257.907 494.216 257.552 493.866 257.507ZM51.766 244.557C51.416 244.452 51.066 244.602 50.966 244.907C49.766 248.057 48.616 251.257 47.566 254.402C47.416 254.707 47.616 255.052 47.916 255.207H48.116C48.416 255.207 48.616 255.052 48.716 254.807C49.816 251.657 50.966 248.457 52.116 245.357C52.216 245.052 52.066 244.652 51.766 244.557ZM497.466 237.707C497.166 237.657 496.816 237.907 496.766 238.257C496.316 241.557 495.766 244.852 495.166 248.152C495.116 248.507 495.316 248.802 495.666 248.907H495.766C496.066 248.907 496.316 248.707 496.416 248.402C497.016 245.052 497.566 241.702 498.016 238.457C498.016 238.107 497.816 237.752 497.466 237.707ZM59.366 225.957C59.066 225.807 58.716 225.957 58.566 226.302C57.216 229.357 55.866 232.457 54.616 235.557C54.516 235.852 54.666 236.257 54.966 236.357C55.066 236.407 55.116 236.407 55.216 236.407C55.466 236.407 55.666 236.257 55.766 236.007C57.016 232.952 58.366 229.852 59.716 226.807C59.866 226.457 59.716 226.102 59.366 225.957ZM499.216 217.707C498.916 217.752 498.616 217.952 498.566 218.307C498.416 221.657 498.216 225.007 497.916 228.307C497.866 228.657 498.116 228.957 498.466 229.002H498.516C498.816 229.002 499.116 228.757 499.116 228.402C499.466 225.107 499.666 221.757 499.816 218.352C499.866 218.057 499.566 217.752 499.216 217.707ZM68.016 207.807C67.716 207.657 67.316 207.752 67.166 208.057C65.666 211.057 64.166 214.107 62.766 217.102C62.616 217.457 62.766 217.807 63.066 217.952C63.166 218.007 63.216 218.007 63.316 218.007C63.566 218.007 63.766 217.907 63.866 217.657C65.316 214.652 66.816 211.607 68.316 208.657C68.466 208.307 68.316 207.952 68.016 207.807ZM499.816 198.252C499.816 197.907 499.516 197.657 499.166 197.657C498.816 197.657 498.566 197.957 498.566 198.307C498.716 201.607 498.816 204.957 498.816 208.307C498.816 208.657 499.116 208.957 499.416 208.957C499.766 208.957 500.066 208.657 500.066 208.307C500.066 204.957 499.966 201.557 499.816 198.252ZM77.516 190.057C77.216 189.907 76.816 190.007 76.666 190.307C74.966 193.252 73.366 196.257 71.816 199.157C71.666 199.457 71.766 199.807 72.066 199.957C72.166 200.007 72.266 200.057 72.366 200.057C72.566 200.057 72.816 199.957 72.916 199.707C74.466 196.857 76.066 193.857 77.766 190.907C77.916 190.607 77.816 190.257 77.516 190.057ZM497.916 178.157C497.866 177.807 497.566 177.557 497.216 177.657C496.866 177.707 496.666 178.007 496.716 178.352C497.166 181.657 497.566 185.007 497.866 188.307C497.916 188.657 498.166 188.857 498.516 188.857H498.566C498.916 188.857 499.166 188.557 499.116 188.207C498.816 184.857 498.416 181.507 497.916 178.157ZM87.766 172.807C87.516 172.607 87.116 172.707 86.916 173.007C85.166 175.852 83.416 178.707 81.716 181.607C81.516 181.907 81.616 182.257 81.916 182.457C82.016 182.507 82.116 182.557 82.216 182.557C82.466 182.557 82.666 182.457 82.766 182.257C84.466 179.357 86.216 176.507 87.966 173.657C88.166 173.352 88.066 173.007 87.766 172.807ZM496.216 167.857H496.166C495.616 164.707 494.866 161.557 494.116 158.352C494.066 158.007 493.716 157.807 493.366 157.907C493.066 157.957 492.816 158.307 492.916 158.657C493.666 161.707 494.316 164.757 494.916 167.807C494.966 168.007 495.016 168.252 495.066 168.457C495.116 168.757 495.366 168.957 495.666 168.957H495.766C496.116 168.857 496.316 168.557 496.266 168.207C496.266 168.107 496.216 167.957 496.216 167.857ZM99.016 155.657C98.766 155.457 98.366 155.507 98.166 155.807L97.916 156.157C96.066 158.907 94.166 161.707 92.366 164.502C92.166 164.807 92.216 165.207 92.516 165.407C92.616 165.457 92.766 165.507 92.866 165.507C93.066 165.507 93.266 165.407 93.366 165.207C95.216 162.407 97.066 159.602 98.966 156.857L99.216 156.507C99.366 156.257 99.316 155.852 99.016 155.657ZM490.816 146.357C490.066 143.857 489.266 141.407 488.466 139.007C488.366 138.657 487.966 138.507 487.666 138.607C487.316 138.757 487.166 139.107 487.266 139.407C488.216 142.157 489.116 144.957 489.966 147.807C490.066 148.207 490.216 148.557 490.316 148.957C490.416 149.257 490.666 149.407 490.916 149.407H491.116C491.416 149.307 491.616 148.957 491.516 148.607C491.316 147.857 491.066 147.102 490.816 146.357ZM110.566 139.207C110.266 139.007 109.866 139.057 109.666 139.357C107.766 142.057 105.816 144.757 103.866 147.557C103.666 147.807 103.766 148.207 104.016 148.407C104.166 148.507 104.266 148.507 104.416 148.507C104.566 148.507 104.766 148.457 104.916 148.252C106.816 145.507 108.766 142.757 110.716 140.057C110.916 139.757 110.816 139.407 110.566 139.207ZM122.466 123.007C122.166 122.807 121.816 122.857 121.566 123.107C119.566 125.752 117.566 128.457 115.566 131.207C115.366 131.457 115.466 131.857 115.716 132.057C115.816 132.157 115.966 132.207 116.066 132.207C116.266 132.207 116.466 132.102 116.616 131.907C118.566 129.207 120.566 126.507 122.566 123.857C122.766 123.607 122.716 123.207 122.466 123.007ZM484.916 129.557C484.616 128.807 484.266 128.007 483.916 127.207C483.766 126.807 483.566 126.357 483.366 125.907C482.616 124.057 481.766 122.157 480.916 120.307C480.766 120.007 480.416 119.857 480.066 120.007C479.766 120.157 479.616 120.507 479.766 120.807C480.366 122.102 480.966 123.407 481.516 124.707C481.916 125.557 482.266 126.407 482.566 127.207C482.966 128.057 483.316 128.857 483.616 129.707C483.666 129.807 483.716 129.907 483.766 130.007C483.866 130.257 484.066 130.407 484.316 130.407C484.416 130.407 484.466 130.407 484.566 130.357C484.816 130.257 485.016 130.007 484.966 129.707C484.966 129.657 484.966 129.602 484.916 129.557ZM134.816 107.102C134.516 106.907 134.166 106.957 133.916 107.207C131.866 109.707 129.916 112.307 127.916 114.857C127.866 114.957 127.766 115.007 127.716 115.107C127.466 115.407 127.516 115.807 127.816 116.007C127.916 116.107 128.066 116.157 128.166 116.157C128.316 116.157 128.466 116.107 128.566 116.007C128.616 115.957 128.616 115.957 128.666 115.907C130.766 113.207 132.816 110.607 134.916 108.007C135.116 107.757 135.066 107.357 134.816 107.102ZM476.516 111.257C475.866 110.057 475.266 108.907 474.616 107.757C473.666 105.957 472.666 104.207 471.616 102.457C471.466 102.157 471.066 102.057 470.766 102.207C470.466 102.407 470.366 102.757 470.566 103.057C471.616 104.857 472.616 106.707 473.666 108.607C474.216 109.657 474.816 110.752 475.366 111.857C475.516 112.057 475.716 112.157 475.916 112.157C476.016 112.157 476.116 112.157 476.216 112.102C476.516 111.957 476.666 111.557 476.516 111.257ZM147.666 91.6568C147.366 91.4568 147.016 91.5068 146.766 91.7568C144.616 94.2568 142.416 96.8068 140.266 99.4068C140.066 99.7068 140.066 100.107 140.366 100.307C140.466 100.407 140.616 100.457 140.766 100.457C140.916 100.457 141.116 100.357 141.216 100.207C143.366 97.6068 145.566 95.0568 147.716 92.5568C147.916 92.3068 147.916 91.9068 147.666 91.6568ZM466.316 93.8568C464.516 91.0568 462.616 88.3068 460.666 85.5568C460.466 85.2568 460.066 85.2068 459.766 85.4068C459.516 85.6068 459.416 86.0068 459.616 86.3068C461.566 89.0068 463.516 91.7568 465.316 94.5568C465.416 94.7068 465.616 94.8068 465.816 94.8068C465.916 94.8068 466.066 94.8068 466.166 94.7068C466.466 94.5568 466.516 94.1568 466.316 93.8568ZM161.066 76.7068C160.816 76.5068 160.416 76.5068 160.216 76.7568C157.916 79.1568 155.666 81.6568 153.416 84.1568C153.166 84.4568 153.216 84.8068 153.466 85.0568C153.566 85.1568 153.716 85.2068 153.866 85.2068C154.016 85.2068 154.216 85.1568 154.316 85.0068C156.566 82.5068 158.866 80.0068 161.116 77.6068C161.366 77.3568 161.316 76.9568 161.066 76.7068ZM454.566 77.5568C452.466 74.9068 450.266 72.3068 448.066 69.8068C447.866 69.5568 447.466 69.5568 447.216 69.7568C446.916 70.0068 446.916 70.4068 447.166 70.6568C449.316 73.1068 451.516 75.7068 453.566 78.3068C453.716 78.4568 453.866 78.5568 454.066 78.5568C454.216 78.5568 454.316 78.5068 454.466 78.4068C454.716 78.2068 454.766 77.8068 454.566 77.5568ZM175.166 62.4068C174.916 62.1568 174.566 62.1568 174.316 62.4068C171.966 64.6568 169.566 67.0568 167.166 69.5018C166.916 69.7568 166.916 70.1568 167.166 70.3568C167.266 70.5068 167.416 70.5568 167.616 70.5568C167.766 70.5568 167.916 70.5068 168.066 70.3568C170.416 67.9568 172.816 65.5568 175.166 63.3068C175.416 63.0568 175.416 62.6568 175.166 62.4068ZM441.266 62.4568C438.916 60.0568 436.516 57.6568 434.066 55.4068C433.816 55.1568 433.416 55.1568 433.166 55.4068C432.966 55.6568 432.966 56.0568 433.216 56.3068C435.666 58.5568 438.066 60.9568 440.366 63.3068C440.466 63.4068 440.616 63.5068 440.816 63.5068C440.966 63.5068 441.116 63.4568 441.216 63.3068C441.466 63.0568 441.466 62.6568 441.266 62.4568ZM190.066 48.9068C189.816 48.6568 189.416 48.6068 189.166 48.8568C187.366 50.4068 185.566 51.9568 183.816 53.5568C183.366 53.9068 182.966 54.3068 182.566 54.7068C182.266 54.9568 181.916 55.2068 181.616 55.5068C181.366 55.7518 181.366 56.1568 181.566 56.4068C181.716 56.5068 181.866 56.6068 182.066 56.6068C182.216 56.6068 182.366 56.5568 182.466 56.4568C183.016 55.9568 183.566 55.4568 184.116 54.9568L185.916 53.3068C187.266 52.1018 188.616 50.9568 189.966 49.8068C190.216 49.5568 190.266 49.1568 190.066 48.9068ZM426.566 48.7068C424.016 46.5068 421.366 44.4068 418.766 42.3568C418.466 42.1568 418.066 42.2068 417.866 42.4568C417.666 42.7568 417.716 43.1568 417.966 43.3518C420.616 45.3568 423.216 47.5068 425.766 49.6568C425.866 49.7568 426.016 49.8068 426.166 49.8068C426.316 49.8068 426.516 49.7068 426.616 49.5568C426.866 49.3068 426.816 48.9068 426.566 48.7068ZM205.766 36.4068C205.566 36.1568 205.166 36.0568 204.916 36.3068C202.266 38.2068 199.616 40.3068 196.916 42.4068C196.666 42.6568 196.616 43.0068 196.816 43.3068C196.966 43.4568 197.116 43.5568 197.316 43.5568C197.466 43.5568 197.566 43.5068 197.716 43.4068C200.366 41.2568 203.016 39.2068 205.666 37.3068C205.916 37.1018 205.966 36.7068 205.766 36.4068ZM410.616 36.4068C407.866 34.4568 405.066 32.6068 402.216 30.8068C401.966 30.6568 401.566 30.7068 401.366 31.0068C401.166 31.3068 401.266 31.7068 401.566 31.8568C404.366 33.6568 407.166 35.5068 409.916 37.4068C410.016 37.5068 410.166 37.5068 410.266 37.5068C410.466 37.5068 410.666 37.4568 410.766 37.2568C410.966 36.9568 410.916 36.6068 410.616 36.4068ZM222.466 25.2068C222.266 24.9568 221.866 24.8568 221.616 25.0068C218.766 26.7568 215.916 28.5568 213.116 30.4568C212.816 30.6568 212.766 31.0568 212.966 31.3568C213.066 31.5068 213.266 31.6068 213.466 31.6068C213.616 31.6068 213.716 31.5568 213.816 31.5068C216.616 29.6018 219.416 27.8068 222.266 26.1068C222.566 25.9068 222.616 25.5068 222.466 25.2068ZM393.616 25.6568C390.666 24.0068 387.666 22.3568 384.716 20.8518C384.416 20.7068 384.016 20.8518 383.866 21.1568C383.716 21.4568 383.866 21.8068 384.166 22.0018C387.116 23.5068 390.066 25.0568 392.966 26.7068C393.066 26.8068 393.166 26.8068 393.266 26.8068C393.516 26.8068 393.716 26.7068 393.816 26.5068C394.016 26.2068 393.916 25.8068 393.616 25.6568ZM240.116 15.7068C239.966 15.3568 239.616 15.2568 239.266 15.4068C236.316 16.8068 233.266 18.3518 230.316 19.9568C230.016 20.1568 229.916 20.5068 230.066 20.8068C230.166 21.0568 230.416 21.1568 230.616 21.1568C230.716 21.1568 230.816 21.1068 230.916 21.0568C233.866 19.4568 236.866 17.9568 239.816 16.5068C240.116 16.3568 240.266 16.0068 240.116 15.7068ZM375.616 16.5068C372.566 15.1568 369.466 13.8068 366.366 12.5568C366.066 12.4568 365.666 12.6068 365.566 12.9068C365.416 13.2518 365.566 13.6068 365.916 13.7568C369.016 14.9568 372.116 16.3068 375.116 17.6568C375.216 17.7068 375.266 17.7068 375.366 17.7068C375.616 17.7068 375.866 17.5568 375.966 17.3568C376.116 17.0018 375.966 16.6568 375.616 16.5068ZM257.966 7.80684C254.816 8.85684 251.616 10.0568 248.516 11.3068C248.166 11.4568 248.016 11.8068 248.166 12.1018C248.266 12.3568 248.516 12.5068 248.716 12.5068C248.816 12.5068 248.916 12.5068 248.966 12.4568C252.066 11.2068 255.216 10.0068 258.366 8.95684C258.666 8.85684 258.866 8.50684 258.716 8.20684C258.616 7.85684 258.266 7.70684 257.966 7.80684ZM356.916 9.05684C353.716 7.95684 350.516 6.95684 347.316 6.05684C346.966 5.95684 346.616 6.15684 346.516 6.50684C346.416 6.80684 346.616 7.15684 346.966 7.25684C350.116 8.15684 353.366 9.15684 356.516 10.2568H356.716C356.966 10.2568 357.216 10.1068 357.316 9.85684C357.416 9.50184 357.266 9.15684 356.916 9.05684ZM277.416 2.60684C274.116 3.25184 270.816 4.00684 267.616 4.90684C267.266 4.95684 267.066 5.30684 267.166 5.65684C267.216 5.90684 267.466 6.10684 267.766 6.10684H267.916C271.116 5.25684 274.416 4.50184 277.666 3.85684C277.966 3.80684 278.216 3.45684 278.166 3.10684C278.066 2.80684 277.766 2.55684 277.416 2.60684ZM337.516 3.60684C334.216 2.90684 330.866 2.25684 327.616 1.75684C327.266 1.70684 326.916 1.95684 326.866 2.25684C326.816 2.60684 327.066 2.95684 327.416 3.00684C330.666 3.50684 333.966 4.10684 337.266 4.80684C337.316 4.85684 337.366 4.85684 337.366 4.85684C337.666 4.85684 337.916 4.65684 338.016 4.35684C338.066 4.00684 337.866 3.70684 337.516 3.60684ZM297.466 0.156836H297.416C294.066 0.356836 290.666 0.656836 287.366 1.05684C287.016 1.10684 286.766 1.40684 286.816 1.75684C286.866 2.05684 287.116 2.30684 287.466 2.30684H287.516C290.816 1.90684 294.166 1.60684 297.516 1.40684C297.816 1.40684 298.116 1.10684 298.066 0.751836C298.066 0.456836 297.766 0.156836 297.466 0.156836ZM317.566 0.556836C314.266 0.256836 310.866 0.0568359 307.516 0.00683594C307.166 0.00683594 306.866 0.256836 306.866 0.606836C306.866 0.956836 307.116 1.25684 307.466 1.25684C310.816 1.30684 314.166 1.50684 317.466 1.80684H317.516C317.866 1.80684 318.116 1.55684 318.166 1.20684C318.166 0.851836 317.916 0.556836 317.566 0.556836Z" fill="#D8D5DB"/>
<path fill-rule="evenodd" clip-rule="evenodd" d="M497.317 135.056L490.817 146.356L489.967 147.806L480.562 164.056L478.517 167.656L418.217 272.056L408.217 289.356L398.217 272.056L362.467 210.156L356.967 200.656L344.712 179.406L316.017 129.706H500.417L497.317 135.056ZM311.717 127.206L344.712 184.356L354.112 200.656L359.617 210.156L395.362 272.056L408.217 294.356L421.117 272.056L480.762 168.706L482.862 165.106L499.167 136.906L503.667 129.056L504.067 128.406L504.767 127.206H311.717Z" fill="white"/>
<path fill-rule="evenodd" clip-rule="evenodd" d="M342.815 382.104C342.965 382.654 342.715 383.459 342.165 384.454C340.915 386.804 337.92 390.154 334.77 392.904C334.115 393.459 333.465 394.004 332.815 394.454C330.915 396.004 329.065 397.209 327.615 397.654C322.515 399.354 300.465 396.454 295.115 393.554C294.77 393.354 294.515 393.154 294.265 392.904C292.07 393.054 288.815 393.104 284.865 392.904C283.065 392.809 281.115 392.654 279.015 392.354C274.065 391.804 268.415 390.654 262.315 388.704C259.315 387.809 256.165 386.654 252.965 385.254C249.965 383.904 246.865 382.354 243.765 380.554C243.015 380.154 242.465 379.654 241.815 379.259C242.415 383.859 243.015 388.404 243.665 392.904C243.865 394.154 244.065 395.404 244.215 396.604C244.765 400.154 245.315 403.659 245.915 407.104C248.265 420.654 250.965 433.404 254.215 444.804C254.515 446.004 254.865 447.209 255.215 448.354C254.165 448.504 253.115 448.659 252.115 448.804C252.365 449.954 252.565 451.159 252.765 452.354C255.265 465.854 257.165 482.504 258.565 499.604C199.865 522.854 145.215 528.304 107.515 505.254C95.515 497.954 85.265 487.754 77.115 474.304C75.815 472.154 74.515 470.004 73.215 467.854C73.465 460.804 73.765 454.854 74.015 450.804C73.065 450.704 72.565 450.704 72.565 450.704C72.565 442.554 72.915 431.854 73.465 419.504C73.515 419.004 73.515 418.504 73.515 417.954C73.715 414.454 73.915 410.854 74.165 407.104C74.365 402.504 74.665 397.809 74.965 392.904C75.415 385.804 75.915 378.404 76.465 370.904C64.265 367.654 54.065 364.154 48.315 360.654C40.815 356.104 37.965 349.754 38.165 343.504C38.065 342.254 38.065 340.904 38.365 339.504C41.215 330.054 51.015 301.904 62.115 273.954L49.815 269.754C49.815 269.754 85.765 205.704 106.865 191.604C106.965 191.554 107.015 191.504 107.115 191.454C114.565 184.554 125.315 180.104 141.415 178.304C141.515 164.954 140.465 142.404 139.365 125.154C134.115 123.954 130.565 119.604 128.565 116.004C128.315 115.604 128.065 115.204 127.915 114.854C127.115 113.304 126.665 112.004 126.465 111.354C125.365 106.954 126.415 103.304 128.565 100.954C128.115 97.3043 127.465 91.3043 127.215 85.0043C126.715 73.4043 127.365 60.7043 132.615 59.5543C132.565 59.4043 132.465 59.3043 132.415 59.2043C131.065 55.0543 133.515 50.4543 133.615 50.3043L135.815 51.4543C135.815 51.5043 133.815 55.3043 134.765 58.4043C138.965 53.7543 153.115 52.2543 167.965 53.1043C168.815 53.1043 169.715 53.2043 170.565 53.2543C173.615 53.5043 176.665 53.8043 179.665 54.2543C180.665 54.3543 181.615 54.5043 182.565 54.7043C183.065 54.7543 183.615 54.8543 184.115 54.9543C187.365 55.5043 190.465 56.2043 193.315 57.0043C198.215 58.3543 202.315 60.0543 205.065 62.0043C205.965 62.6043 206.665 63.2543 207.265 63.9043C209.765 66.8043 210.165 68.8543 209.065 70.2043C208.415 70.9543 207.365 71.5043 205.965 71.9043C206.565 76.1043 206.815 79.7543 206.915 83.1043C207.215 83.9043 207.515 84.7543 207.815 85.6043C208.065 86.3543 208.315 87.1543 208.565 87.9543C208.615 88.0043 208.665 88.0043 208.715 88.0543C209.015 88.3043 209.315 88.5043 209.615 88.7543C210.715 89.7543 211.715 91.0043 212.465 92.6543L210.215 93.7043C210.165 93.6043 210.115 93.5543 210.065 93.4543C210.665 96.0043 211.215 98.6543 211.615 101.454C212.215 105.604 212.865 109.754 213.515 113.804C213.715 115.354 213.915 116.904 214.115 118.404C214.565 121.504 214.965 124.554 215.215 127.454C215.315 128.354 215.415 129.204 215.415 130.054C216.465 143.254 215.215 154.204 207.315 159.704C205.815 160.804 204.015 161.704 201.965 162.304C199.365 163.154 196.265 163.604 192.665 163.654C192.765 167.154 192.965 170.554 193.265 173.754C193.415 175.004 193.565 176.254 193.765 177.404C193.915 178.604 194.115 179.804 194.365 180.904C207.715 184.104 217.765 189.504 224.115 196.854C224.415 197.154 224.765 197.454 225.065 197.804C228.615 201.254 232.065 206.559 235.315 212.904C239.415 220.854 243.265 230.509 246.665 240.154C246.915 240.904 247.165 241.704 247.465 242.454C247.715 243.304 248.015 244.104 248.265 244.954C249.665 249.104 250.965 253.254 252.165 257.209C253.065 260.154 253.865 263.009 254.665 265.704C258.515 279.259 260.765 289.259 260.765 289.259L254.665 290.704L252.165 291.304L250.365 291.759C250.965 294.154 251.565 296.504 252.165 298.904C252.215 299.154 252.315 299.454 252.365 299.709C253.165 302.809 253.915 305.959 254.665 309.004C258.515 324.654 261.765 339.154 263.215 348.754C267.515 352.304 270.665 357.854 275.315 363.009C280.015 368.204 286.365 372.904 297.115 374.754C297.165 374.754 297.165 374.804 297.215 374.804C301.42 371.504 309.215 367.609 313.965 366.159C314.615 366.004 315.17 365.854 315.665 365.754C316.065 365.654 316.42 365.604 316.715 365.604C318.72 365.204 319.015 365.354 320.215 366.104C320.665 366.454 321.265 366.904 322.215 367.454C326.115 369.754 330.215 371.904 333.765 374.004C338.165 376.559 341.615 379.004 342.615 381.604C342.715 381.759 342.765 381.954 342.815 382.104Z" fill="#D1CDD3"/>
<path fill-rule="evenodd" clip-rule="evenodd" d="M357.669 367.431C354.104 365.296 355.144 365.026 351.114 365.766C346.764 366.571 337.404 371.061 332.669 374.801C332.619 374.796 332.584 374.771 332.534 374.761C311.094 371.086 307.324 355.921 298.654 348.741C293.849 317.261 269.639 231.591 269.639 231.591L233.159 245.156C238.474 281.251 259.864 349.901 265.414 365.391C266.324 367.266 267.499 368.756 268.814 369.966C270.634 373.811 273.904 377.521 279.189 380.576C301.059 393.221 321.759 393.396 329.679 392.891C329.934 393.146 330.224 393.366 330.554 393.551C335.919 396.481 357.929 399.351 363.069 397.666C368.294 395.951 378.994 385.121 378.224 382.121C376.974 377.221 366.604 372.781 357.669 367.431Z" fill="#FFAD69"/>
<path fill-rule="evenodd" clip-rule="evenodd" d="M236.904 208.452C226.604 231.602 230.389 304.957 230.389 304.957L296.214 289.267C296.214 289.267 264.064 147.382 236.904 208.452Z" fill="#377ADB"/>
<path fill-rule="evenodd" clip-rule="evenodd" d="M292.615 484.402C281.22 490.107 269.815 495.202 258.565 499.602C199.865 522.852 145.22 528.302 107.515 505.252C108.065 483.602 108.815 461.052 109.415 450.802C109.515 449.602 109.615 448.552 109.665 447.702L129.865 447.302H130.765L130.815 447.252L240.115 445.107H240.22L247.215 444.952L254.215 444.802L286.515 444.152C286.87 445.652 287.215 447.252 287.515 448.857C289.615 459.057 291.265 471.302 292.615 484.402Z" fill="#232323"/>
<path fill-rule="evenodd" clip-rule="evenodd" d="M188.55 177.434C149.28 178.729 136.005 191.984 129.235 214.909C121.545 240.939 108.005 398.159 108.005 450.694C108.005 450.694 225.53 459.024 290.635 448.349C270.22 379.394 268.015 255.414 267.605 218.474C267.3 190.764 238.33 175.789 188.55 177.434Z" fill="#4D8DFF"/>
<mask id="mask1_0_273" style="mask-type:luminance" maskUnits="userSpaceOnUse" x="0" y="18" width="533" height="521">
<path fill-rule="evenodd" clip-rule="evenodd" d="M0 538.035H532.615V18H0V538.035Z" fill="white"/>
</mask>
<g mask="url(#mask1_0_273)">
<path fill-rule="evenodd" clip-rule="evenodd" d="M194.965 314.305H252.165V244.955H194.965V314.305ZM192.465 316.805H254.665V242.455H192.465V316.805Z" fill="white"/>
<path fill-rule="evenodd" clip-rule="evenodd" d="M223.145 113.144C227.01 110.229 247.19 112.874 241.38 71.7894C239.26 56.7994 225.185 66.8044 215.22 68.8044C205.25 70.8044 211.59 113.884 211.59 113.884L223.145 113.144Z" fill="#232323"/>
<path fill-rule="evenodd" clip-rule="evenodd" d="M172.901 103.303C174.576 114.193 177.926 173.108 176.531 186.793C175.136 200.478 241.316 204.383 232.656 189.308C224.001 174.228 230.146 124.243 230.146 124.243L172.901 103.303Z" fill="#FFAD69"/>
<path fill-rule="evenodd" clip-rule="evenodd" d="M177.48 104.968L230.135 124.248C230.135 124.248 226.58 153.358 228.725 173.858C188.575 170.753 178.27 120.043 177.595 110.278C177.48 108.438 177.425 106.663 177.48 104.968Z" fill="#D88344"/>
<path fill-rule="evenodd" clip-rule="evenodd" d="M247.041 101.448C251.921 135.083 260.206 168.623 219.436 163.098C178.661 157.578 172.331 105.303 172.446 95.4479C173.081 42.8329 237.446 35.3079 247.041 101.448Z" fill="#FFAD69"/>
<path fill-rule="evenodd" clip-rule="evenodd" d="M242.693 63.8918C233.098 52.7468 179.153 48.5418 170.223 58.4118C169.243 55.3118 171.243 51.5018 171.263 51.4668L169.063 50.2818C168.958 50.4718 166.523 55.0668 167.848 59.1968C167.893 59.3268 168.003 59.4168 168.048 59.5468C158.178 61.7218 164.478 104.602 164.478 104.602L176.033 103.862C179.898 100.952 193.313 80.4618 196.268 68.0968C217.393 71.6718 254.888 78.0568 242.693 63.8918Z" fill="#232323"/>
<path fill-rule="evenodd" clip-rule="evenodd" d="M236.956 368.618C232.826 368.848 216.801 371.633 211.176 370.328C192.271 365.913 143.551 344.058 117.326 331.843C133.461 296.818 157.211 234.828 157.211 234.828L119.866 223.868C102.536 255.973 78.6005 323.778 73.7805 339.513C73.5105 340.923 73.4905 342.248 73.5755 343.518C73.4055 349.743 76.2555 356.098 83.7405 360.658C104.501 373.303 182.816 385.573 204.506 387.968C204.906 388.778 205.436 389.513 206.296 389.998C211.601 392.978 235.741 395.208 240.706 396.088C246.931 397.188 265.826 398.788 265.011 396.258C263.676 392.113 256.671 367.513 236.956 368.618Z" fill="#FFAD69"/>
<path fill-rule="evenodd" clip-rule="evenodd" d="M142.28 191.624C121.215 205.704 85.2555 269.749 85.2555 269.749L149.29 291.624C149.29 291.624 197.85 154.484 142.28 191.624Z" fill="#4D8DFF"/>
<path fill-rule="evenodd" clip-rule="evenodd" d="M212.71 99.7853C212.58 101.425 213.465 102.83 214.69 102.93C215.92 103.025 217.02 101.78 217.155 100.14C217.29 98.5053 216.4 97.0953 215.17 96.9953C213.945 96.9003 212.84 98.1453 212.71 99.7853Z" fill="#232323"/>
<path fill-rule="evenodd" clip-rule="evenodd" d="M238.682 100.474C238.552 102.114 239.437 103.519 240.662 103.619C241.892 103.714 242.992 102.469 243.127 100.829C243.257 99.1938 242.367 97.7838 241.142 97.6838C239.917 97.5888 238.812 98.8338 238.682 100.474Z" fill="#232323"/>
<path fill-rule="evenodd" clip-rule="evenodd" d="M206.321 90.5813L204.226 89.2163C208.646 82.4463 216.066 84.0163 216.386 84.0863L215.841 86.5263C215.601 86.4763 209.776 85.2863 206.321 90.5813Z" fill="#232323"/>
<path fill-rule="evenodd" clip-rule="evenodd" d="M245.637 93.6988C242.992 87.9438 237.052 88.2588 236.817 88.2838L236.642 85.7888C236.962 85.7688 244.532 85.3038 247.907 92.6538L245.637 93.6988Z" fill="#232323"/>
<path fill-rule="evenodd" clip-rule="evenodd" d="M221.054 130.752C216.829 130.752 208.704 129.552 203.659 121.162L205.799 119.872C211.914 130.042 222.884 128.187 223.349 128.102L223.804 130.557C223.764 130.567 222.709 130.752 221.054 130.752Z" fill="#232323"/>
<path fill-rule="evenodd" clip-rule="evenodd" d="M240.278 119.36L228.138 119.195L228.173 116.695L236.928 116.815L231.523 98.3803L233.918 97.6753L240.278 119.36Z" fill="#D88344"/>
<path fill-rule="evenodd" clip-rule="evenodd" d="M182.788 107.583C186.468 115.883 191.083 123.913 179.518 125.403C167.953 126.898 162.573 113.913 161.918 111.368C158.418 97.7928 175.543 91.2628 182.788 107.583Z" fill="#FFAD69"/>
<path fill-rule="evenodd" clip-rule="evenodd" d="M495.891 407.088H17.451C13.546 407.088 10.351 403.893 10.351 399.988C10.351 396.083 13.546 392.888 17.451 392.888H495.891C499.796 392.888 502.991 396.083 502.991 399.988C502.991 403.893 499.796 407.088 495.891 407.088Z" fill="white"/>
<path fill-rule="evenodd" clip-rule="evenodd" d="M194.512 407.088H13.9015C9.99651 407.088 6.80151 403.893 6.80151 399.988C6.80151 396.083 9.99651 392.888 13.9015 392.888H194.512C198.417 392.888 201.612 396.083 201.612 399.988C201.612 403.893 198.417 407.088 194.512 407.088Z" fill="#D8D5DB"/>
<path fill-rule="evenodd" clip-rule="evenodd" d="M472.464 381.616H324.054C318.389 381.616 314.629 377.016 315.659 371.346L331.844 282.341C332.879 276.666 338.309 272.071 343.984 272.071H492.389C498.059 272.071 501.819 276.666 500.789 282.341L484.604 371.346C483.569 377.016 478.139 381.616 472.464 381.616Z" fill="#2B2B2B"/>
<path fill-rule="evenodd" clip-rule="evenodd" d="M476.091 381.616H327.681C322.016 381.616 318.256 377.016 319.286 371.346L335.471 282.341C336.501 276.666 341.936 272.071 347.606 272.071H496.011C501.686 272.071 505.446 276.666 504.416 282.341L488.226 371.346C487.196 377.016 481.761 381.616 476.091 381.616Z" fill="#232323"/>
<path fill-rule="evenodd" clip-rule="evenodd" d="M426.565 344.853H390.62L397.165 308.858H433.12L426.565 344.853ZM395.065 306.358L387.615 347.353H428.615L436.115 306.358H395.065Z" fill="white"/>
<path fill-rule="evenodd" clip-rule="evenodd" d="M298.025 384.461C298.025 389.096 301.82 392.891 306.46 392.891H461.705C466.345 392.891 470.14 389.096 470.14 384.461H298.025Z" fill="#232323"/>
<path fill-rule="evenodd" clip-rule="evenodd" d="M252.922 384.461C252.922 389.096 256.712 392.891 261.352 392.891H322.402C327.042 392.891 330.837 389.096 330.837 384.461H252.922Z" fill="#2B2B2B"/>
<path fill-rule="evenodd" clip-rule="evenodd" d="M423.45 108.232C418.195 108.232 413.935 112.497 413.935 117.752H432.97C432.97 112.497 428.71 108.232 423.45 108.232Z" fill="#377ADB"/>
<path fill-rule="evenodd" clip-rule="evenodd" d="M423.459 108.235V200.665C423.459 205.93 419.189 210.155 413.924 210.155H344.719V117.775C344.719 112.505 348.984 108.235 354.214 108.235H423.459Z" fill="#4D8DFF"/>
<path fill-rule="evenodd" clip-rule="evenodd" d="M404.431 200.664L335.191 200.654C335.191 205.909 339.456 210.169 344.716 210.169L413.921 210.154C408.661 210.154 404.431 205.929 404.431 200.664Z" fill="#6EA9FF"/>
<path fill-rule="evenodd" clip-rule="evenodd" d="M355.07 123.755H413.12V121.255H355.07V123.755Z" fill="white"/>
<path fill-rule="evenodd" clip-rule="evenodd" d="M355.07 133.225H413.12V130.725H355.07V133.225Z" fill="white"/>
<path fill-rule="evenodd" clip-rule="evenodd" d="M355.07 142.695H413.12V140.195H355.07V142.695Z" fill="white"/>
<path fill-rule="evenodd" clip-rule="evenodd" d="M355.07 152.165H413.12V149.665H355.07V152.165Z" fill="white"/>
<path fill-rule="evenodd" clip-rule="evenodd" d="M355.07 161.635H413.12V159.135H355.07V161.635Z" fill="white"/>
<path fill-rule="evenodd" clip-rule="evenodd" d="M355.07 171.105H413.12V168.605H355.07V171.105Z" fill="white"/>
<path fill-rule="evenodd" clip-rule="evenodd" d="M355.07 180.575H413.12V178.075H355.07V180.575Z" fill="white"/>
<path fill-rule="evenodd" clip-rule="evenodd" d="M355.07 190.045H413.12V187.545H355.07V190.045Z" fill="white"/>
<path fill-rule="evenodd" clip-rule="evenodd" d="M520.183 157.898C506.933 171.148 485.443 171.148 472.188 157.898C458.938 144.643 458.938 123.158 472.188 109.903C485.443 96.6478 506.933 96.6478 520.183 109.903C533.433 123.158 533.433 144.643 520.183 157.898Z" fill="#FFC84D"/>
<path fill-rule="evenodd" clip-rule="evenodd" d="M496.189 133.901L523.154 160.866C508.364 175.661 484.009 175.661 469.219 160.866C462.884 154.526 458.979 146.156 458.194 137.226L496.189 133.901Z" fill="#232323"/>
<path fill-rule="evenodd" clip-rule="evenodd" d="M496.189 133.901L458.309 138.316C457.809 134.041 458.039 129.711 458.989 125.506C459.934 121.306 461.584 117.296 463.874 113.646L496.189 133.901Z" fill="white"/>
<path fill-rule="evenodd" clip-rule="evenodd" d="M330.071 84.8048H301.321C297.611 84.8048 294.571 81.7698 294.571 78.0548V49.3098C294.571 45.5998 297.611 42.5598 301.321 42.5598H330.071C333.781 42.5598 336.821 45.5998 336.821 49.3098V78.0548C336.821 81.7698 333.781 84.8048 330.071 84.8048Z" fill="#232323"/>
<path fill-rule="evenodd" clip-rule="evenodd" d="M321.667 93.2078H292.917C289.207 93.2078 286.167 90.1728 286.167 86.4578V57.7128C286.167 54.0028 289.207 50.9628 292.917 50.9628H321.667C325.377 50.9628 328.417 54.0028 328.417 57.7128V86.4578C328.417 90.1728 325.377 93.2078 321.667 93.2078Z" fill="#FF4E4A"/>
</g>
</svg>
