<svg width="99" height="73" viewBox="0 0 99 73" fill="none" xmlns="http://www.w3.org/2000/svg">
<path fill-rule="evenodd" clip-rule="evenodd" d="M50 -24C76.5096 -24 98 -2.50987 98 24C98 50.5095 76.5096 71.9999 50 71.9999C23.4903 71.9999 1.9999 50.5095 1.9999 24C1.9999 -2.50987 23.4903 -24 50 -24Z" fill="#333333"/>
<path fill-rule="evenodd" clip-rule="evenodd" d="M78.5313 52.5781L75.5781 55.5314L59.2656 39.2187C58.3274 40.0626 57.2969 40.8141 56.1719 41.4689C55.0469 42.1259 53.8736 42.6883 52.6563 43.1564C51.4368 43.6267 50.147 43.9782 48.789 44.2111C47.429 44.4461 46.093 44.5627 44.7813 44.5627C41.593 44.5627 38.6157 43.954 35.8516 42.7343C33.0852 41.5173 30.6704 39.8758 28.6094 37.8125C26.5461 35.7515 24.929 33.3369 23.7578 30.5704C22.5845 27.8063 22 24.8752 22 21.7814C22 18.5954 22.5845 15.6179 23.7578 12.8517C24.929 10.0876 26.5461 7.67276 28.6094 5.60948C30.6704 3.54843 33.0852 1.93112 35.8516 0.757846C38.6157 -0.413186 41.593 -1 44.7813 -1C47.8751 -1 50.804 -0.413186 53.5704 0.757846C56.3345 1.93112 58.7493 3.54843 60.8126 5.60948C62.8736 7.67276 64.515 10.0876 65.7344 12.8517C66.9517 15.6179 67.5625 18.5954 67.5625 21.7814C67.5625 23.0952 67.4438 24.4312 67.211 25.7891C66.9758 27.1493 66.6242 28.4392 66.1563 29.6563C65.686 30.8759 65.1236 32.047 64.4688 33.1719C63.8118 34.2969 63.0625 35.3297 62.2188 36.2657L78.5313 52.5781ZM24.3906 21.7814C24.3906 24.5938 24.9048 27.2195 25.9375 29.6563C26.968 32.0953 28.4205 34.2508 30.2969 36.1252C32.1711 38.0017 34.3508 39.4781 36.836 40.5547C39.3188 41.6336 41.9687 42.172 44.7813 42.172C47.5938 42.172 50.2173 41.6336 52.6563 40.5547C55.093 39.4781 57.2486 38.0017 59.125 36.1252C60.9993 34.2508 62.4758 32.0953 63.5547 29.6563C64.6314 27.2195 65.1719 24.5938 65.1719 21.7814C65.1719 18.9688 64.6314 16.321 63.5547 13.8359C62.4758 11.3531 60.9993 9.17343 59.125 7.29699C57.2486 5.42262 55.093 3.97028 52.6563 2.93748C50.2173 1.90699 47.5938 1.39068 44.7813 1.39068C41.9687 1.39068 39.3188 1.90699 36.836 2.93748C34.3508 3.97028 32.1711 5.42262 30.2969 7.29699C28.4205 9.17343 26.968 11.3531 25.9375 13.8359C24.9048 16.321 24.3906 18.9688 24.3906 21.7814V21.7814Z" fill="#5474FD"/>
</svg>
