<svg width="96" height="96" viewBox="0 0 96 96" fill="none" xmlns="http://www.w3.org/2000/svg">
<path fill-rule="evenodd" clip-rule="evenodd" d="M48 0C74.5096 0 96 21.4901 96 48C96 74.5095 74.5096 95.9999 48 95.9999C21.4902 95.9999 0 74.5095 0 48C0 21.4901 21.4902 0 48 0Z" fill="#333333"/>
<path fill-rule="evenodd" clip-rule="evenodd" d="M78.5859 46.656C78.5859 47.3131 78.4914 47.9217 78.3046 48.4841C78.1157 49.0467 77.8345 49.563 77.4609 50.0311C77.0852 50.5014 76.6633 50.8748 76.1954 51.1561C75.7251 51.4374 75.211 51.6724 74.6485 51.8592C74.9296 52.3294 75.1626 52.8217 75.3515 53.3357C75.5383 53.8523 75.6328 54.4388 75.6328 55.0936C75.6328 55.6562 75.5383 56.2185 75.3515 56.7811C75.1626 57.3437 74.9296 57.86 74.6485 58.3279C74.2727 58.7036 73.8508 59.0552 73.3828 59.3826C72.9125 59.7122 72.4445 59.9693 71.9765 60.1562C72.2578 60.6264 72.4907 61.1404 72.6797 61.703C72.8664 62.2656 72.9609 62.8279 72.9609 63.3905C72.9609 64.0473 72.8664 64.6341 72.6797 65.1484C72.4907 65.6646 72.2578 66.1567 71.9765 66.6249C71.6008 67.0951 71.179 67.4927 70.7109 67.82C70.2407 68.1497 69.7265 68.3608 69.1641 68.4529C69.5376 68.9231 69.8188 69.4155 70.0078 69.9294C70.1946 70.446 70.289 71.0325 70.289 71.6873C70.289 72.3443 70.1484 73.0014 69.8672 73.6561C69.5859 74.3132 69.2102 74.8755 68.7421 75.3437C68.1797 75.8139 67.5688 76.1874 66.914 76.4686C66.2571 76.75 65.554 76.8904 64.8046 76.8904H46.2421C45.5852 76.8904 44.8359 76.7983 43.9922 76.6092C43.1484 76.4226 42.2563 76.1412 41.3203 75.7655C40.382 75.4842 39.4438 75.1327 38.5078 74.7108C37.5696 74.289 36.6313 73.8911 35.6953 73.5154C34.5703 73.0474 33.4672 72.5796 32.3906 72.1091C31.3118 71.6412 30.5383 71.406 30.0702 71.406H17.2734V43.9843L18.3984 43.8435C23.7422 43.8435 27.3984 43.8435 29.3672 43.8435C30.2109 43.8435 30.9843 43.7513 31.6875 43.5622C32.3906 43.3756 33.1157 42.9999 33.8672 42.4373C34.7109 41.9693 35.6711 41.3123 36.75 40.4687C37.8267 39.6247 39.1164 38.5943 40.6171 37.3749C43.5219 34.9381 45.2336 31.8904 45.75 28.2342C46.2642 24.5781 46.5234 22.4687 46.5234 21.9061C46.5234 21.3435 46.664 20.8053 46.9453 20.2888C47.2265 19.7748 47.6001 19.3749 48.0704 19.0935C48.5383 18.7201 49.0304 18.4607 49.5468 18.3202C50.061 18.1794 50.5532 18.1091 51.0235 18.1091C51.7726 18.1091 52.5219 18.2036 53.2734 18.3905C54.0227 18.5793 54.7257 19.0014 55.3828 19.6562C56.0376 20.313 56.554 21.181 56.9297 22.2576C57.3033 23.3365 57.4922 24.767 57.4922 26.5467C57.4922 28.1418 57.3735 29.6647 57.1406 31.117C56.9055 32.5716 56.6001 33.9537 56.2265 35.2655C55.9453 36.5793 55.5937 37.7748 55.1719 38.8514C54.75 39.9302 54.3984 40.8444 54.1172 41.5936H73.2421C74.0859 41.5936 74.811 41.7122 75.4219 41.9452C76.0306 42.1802 76.6172 42.5317 77.1797 42.9999C77.6477 43.4701 77.9993 44.0084 78.2343 44.6169C78.4673 45.2279 78.5859 45.9068 78.5859 46.656ZM73.2421 49.6093C73.7102 49.6093 74.1321 49.5388 74.5078 49.3983C74.8814 49.2577 75.1626 49.0467 75.3515 48.7654C75.6328 48.4841 75.8658 48.1809 76.0547 47.8515C76.2414 47.5241 76.3359 47.1262 76.3359 46.656C76.3359 45.9068 76.0547 45.2498 75.4922 44.6874C74.9296 44.1248 74.1782 43.8435 73.2421 43.8435H64.8046C64.8046 43.9379 64.8046 43.9379 64.8046 43.8435H50.3203L51.164 42.1559C53.7876 35.6873 55.1016 30.4841 55.1016 26.5467C55.1016 23.4529 54.5852 21.649 53.5547 21.1327C52.5219 20.6184 51.6782 20.3593 51.0235 20.3593C50.7421 20.3593 50.3203 20.4998 49.7578 20.7811C49.1952 21.0624 48.9141 21.4382 48.9141 21.9061C48.9141 22.4687 48.8657 23.4068 48.7734 24.7186C48.679 26.0327 48.3977 27.5311 47.9297 29.2186C47.4594 30.9062 46.7805 32.6419 45.8905 34.4218C44.9986 36.2036 43.757 37.7506 42.164 39.0624C40.5689 40.3763 39.2329 41.477 38.1563 42.367C37.0773 43.259 36.0688 43.9843 35.1328 44.5467C34.1945 45.1093 33.2563 45.5311 32.3203 45.8124C31.382 46.0937 30.3977 46.2342 29.3672 46.2342C28.6157 46.2342 27.7962 46.2342 26.9062 46.2342C26.0141 46.2342 25.1001 46.2342 24.164 46.2342C23.3203 46.2342 22.4985 46.2342 21.7031 46.2342C20.9054 46.2342 20.2265 46.2342 19.664 46.2342V69.0155H30.0702C30.725 69.0155 31.593 69.2263 32.6719 69.6482C33.7485 70.0702 35.0844 70.6107 36.6796 71.2654C37.429 71.6412 38.2485 72.0388 39.1406 72.4607C40.0305 72.8827 40.8984 73.2343 41.7422 73.5154C42.6782 73.7966 43.5219 74.0561 44.2734 74.289C45.0227 74.5239 45.6796 74.6406 46.2421 74.6406H61.8516H64.8046C65.2726 74.6406 65.6946 74.5482 66.0703 74.3592C66.4438 74.1724 66.7734 73.9374 67.0547 73.6561C67.3359 73.4693 67.5468 73.188 67.6875 72.8122C67.8281 72.4388 67.8984 72.063 67.8984 71.6873C67.8984 71.2194 67.8281 70.8217 67.6875 70.492C67.5468 70.1647 67.3359 69.8592 67.0547 69.5779C66.7734 69.2969 66.4438 69.0858 66.0703 68.9453C65.6946 68.8045 65.2726 68.7343 64.8046 68.7343H64.5234V66.3435H67.7577C68.1314 66.3435 68.507 66.2733 68.8828 66.1328C69.2564 65.992 69.5859 65.7812 69.8672 65.4999C70.0539 65.2186 70.2407 64.8913 70.4297 64.5155C70.6165 64.142 70.7109 63.7663 70.7109 63.3905C70.7109 63.0168 70.6165 62.6411 70.4297 62.2656C70.2407 61.8919 70.0539 61.5625 69.8672 61.2812C69.5859 61.0943 69.2564 60.9075 68.8828 60.7185C68.507 60.5319 68.1314 60.4373 67.7577 60.4373H66.7734V58.0468H70.289C70.6626 58.0468 71.0383 57.9763 71.414 57.8358C71.7876 57.6953 72.1172 57.4842 72.3984 57.2029C72.6797 56.9216 72.9125 56.5942 73.1016 56.2185C73.2883 55.845 73.3828 55.4693 73.3828 55.0936C73.3828 54.6256 73.2883 54.2038 73.1016 53.828C72.9125 53.4544 72.6797 53.1733 72.3984 52.9842C72.1172 52.7028 71.7876 52.4702 71.414 52.281C71.0383 52.0944 70.6626 51.9998 70.289 51.9998H69.1641V49.6093H73.2421Z" fill="#00A2FF"/>
</svg>
