<svg width="99" height="99" viewBox="0 0 99 99" fill="none" xmlns="http://www.w3.org/2000/svg">
<path fill-rule="evenodd" clip-rule="evenodd" d="M50 2C76.5096 2 98 23.4901 98 50C98 76.5095 76.5096 97.9999 50 97.9999C23.4903 97.9999 1.9999 76.5095 1.9999 50C1.9999 23.4901 23.4903 2 50 2Z" fill="#333333"/>
<path fill-rule="evenodd" clip-rule="evenodd" d="M50.9532 21C55.0774 21 58.9688 21.7734 62.625 23.3202C66.2813 24.8672 69.4673 27.0008 72.1875 29.7186C74.9055 32.4389 77.0391 35.6249 78.586 39.2813C80.1328 42.9374 80.9063 46.8288 80.9063 50.9531C80.9063 55.0795 80.1328 58.9685 78.586 62.625C77.0391 66.2811 74.9055 69.4694 72.1875 72.1874C69.4673 74.9075 66.2813 77.0391 62.625 78.5858C58.9688 80.1326 55.0774 80.9063 50.9532 80.9063C46.8267 80.9063 42.9375 80.1326 39.2813 78.5858C35.625 77.0391 32.4368 74.9075 29.7188 72.1874C26.9986 69.4694 24.8672 66.2811 23.3203 62.625C21.7734 58.9685 21 55.0795 21 50.9531C21 46.8288 21.7734 42.9374 23.3203 39.2813C24.8672 35.6249 26.9986 32.4389 29.7188 29.7186C32.4368 27.0008 35.625 24.8672 39.2813 23.3202C42.9375 21.7734 46.8267 21 50.9532 21ZM50.9532 78.5156C54.7961 78.5156 58.382 77.7905 61.711 76.3359C65.0376 74.8833 67.9688 72.9389 70.5001 70.4999C72.9368 67.9687 74.8814 65.0398 76.3359 61.7108C77.7883 58.3841 78.5157 54.7982 78.5157 50.9531C78.5157 47.1101 77.7883 43.524 76.3359 40.1952C74.8814 36.8684 72.9368 33.9373 70.5001 31.4061C67.9688 28.9694 65.0376 27.0249 61.711 25.5703C58.382 24.1177 54.7961 23.3904 50.9532 23.3904C47.108 23.3904 43.522 24.1177 40.1953 25.5703C36.8664 27.0249 33.9375 28.9694 31.4062 31.4061C28.9673 33.9373 27.0227 36.8684 25.5704 40.1952C24.1157 43.524 23.3906 47.1101 23.3906 50.9531C23.3906 54.7982 24.1157 58.3841 25.5704 61.7108C27.0227 65.0398 28.9673 67.9687 31.4062 70.4999C33.9375 72.9389 36.8664 74.8833 40.1953 76.3359C43.522 77.7905 47.108 78.5156 50.9532 78.5156ZM66 40.2655C66.2813 39.892 66.679 39.7031 67.1953 39.7031C67.7095 39.7031 68.1555 39.892 68.5313 40.2655C68.8125 40.6412 68.9532 41.0872 68.9532 41.6014C68.9532 42.1177 68.7641 42.5156 68.3907 42.7969L47.8595 62.7655C47.7649 62.9544 47.6001 63.071 47.3672 63.1171C47.1321 63.1654 46.9212 63.1873 46.7344 63.1873C46.4531 63.1873 46.1939 63.1654 45.961 63.1171C45.7259 63.071 45.5611 62.9544 45.4687 62.7655L37.4531 54.7498C37.0773 54.3763 36.8907 53.9304 36.8907 53.4141C36.8907 52.8998 37.0773 52.4999 37.4531 52.2186C37.7344 51.8451 38.1321 51.6562 38.6485 51.6562C39.1627 51.6562 39.6086 51.8451 39.9843 52.2186L46.7344 58.9685L66 40.2655Z" fill="#FF6363"/>
</svg>
